# Blender 4.0.1
# www.blender.org
mtllib r2.mtl
o r2.001
v -0.000081 0.405232 7.895692
v 0.000013 -1.750001 7.895692
v 0.107865 0.405237 7.885172
v 0.107959 -1.749996 7.885172
v 0.211663 0.405241 7.854013
v 0.211757 -1.749992 7.854013
v 0.307324 0.405245 7.803412
v 0.307418 -1.749987 7.803413
v 0.391172 0.405249 7.735315
v 0.391266 -1.749984 7.735315
v 0.459984 0.405252 7.652337
v 0.460078 -1.749980 7.652338
v 0.511117 0.405255 7.557669
v 0.511211 -1.749978 7.557670
v 0.542605 0.405256 7.454948
v 0.542699 -1.749977 7.454949
v 0.542612 0.405256 6.591928
v 0.542700 -1.749977 6.970136
v 0.511125 0.405254 6.591928
v 0.511219 -1.749978 6.591928
v 0.459994 0.405252 6.591927
v 0.460088 -1.749981 6.591928
v 0.391182 0.405249 6.591927
v 0.391276 -1.749984 6.591927
v 0.307335 0.405245 6.591926
v 0.307429 -1.749987 6.591927
v 0.211674 0.405241 6.591925
v 0.211768 -1.749992 6.591926
v 0.107876 0.405236 6.591924
v 0.107970 -1.749996 6.591925
v -0.000070 0.405231 6.591923
v 0.000024 -1.750001 6.591924
v -0.108016 0.405227 6.591922
v -0.107922 -1.750006 6.591923
v -0.211814 0.405222 6.591921
v -0.211720 -1.750011 6.591922
v -0.307475 0.405218 6.591920
v -0.307381 -1.750015 6.591921
v -0.391322 0.405214 6.591920
v -0.391228 -1.750019 6.591920
v -0.460134 0.405211 6.591919
v -0.460040 -1.750022 6.591920
v -0.511266 0.405208 6.591919
v -0.511172 -1.750024 6.591919
v -0.542752 0.405207 6.591918
v -0.542658 -1.750026 6.591919
v -0.542760 0.405207 7.454939
v -0.542666 -1.750026 7.454939
v -0.511274 0.405209 7.557661
v -0.511180 -1.750024 7.557661
v -0.460143 0.405211 7.652329
v -0.460049 -1.750022 7.652330
v -0.391332 0.405214 7.735308
v -0.391238 -1.750019 7.735309
v -0.307485 0.405218 7.803407
v -0.307391 -1.750015 7.803407
v -0.211825 0.405222 7.854009
v -0.211731 -1.750011 7.854010
v -0.108028 0.405227 7.885170
v -0.107934 -1.750006 7.885170
v 0.549423 0.405256 7.386440
v 0.549430 0.405256 6.591928
v 0.549524 -1.749977 6.591928
v 0.549517 -1.749976 7.386440
v -0.549571 0.405207 6.591918
v -0.549577 0.405207 7.386430
v -0.549484 -1.750026 7.386431
v -0.549477 -1.750026 6.591919
v -0.000074 0.235651 7.895692
v -0.000052 -0.247049 7.895692
v 0.107894 -0.247044 7.885172
v 0.107873 0.235656 7.885172
v 0.211692 -0.247039 7.854013
v 0.211671 0.235661 7.854013
v 0.307353 -0.247035 7.803412
v 0.307332 0.235665 7.803412
v 0.391201 -0.247031 7.735315
v 0.391180 0.235669 7.735315
v 0.460014 -0.247028 7.652337
v 0.459992 0.235672 7.652337
v 0.511146 -0.247026 7.557669
v 0.511124 0.235674 7.557669
v 0.542634 -0.247024 7.454948
v 0.542612 0.235676 7.454948
v 0.542635 -0.247025 6.970136
v 0.542614 0.235676 6.970136
v 0.511148 -0.247026 6.970135
v 0.511127 0.235674 6.970135
v 0.460017 -0.247028 6.970135
v 0.459995 0.235672 6.970135
v 0.391205 -0.247031 6.970134
v 0.391183 0.235669 6.970134
v 0.307358 -0.247035 6.970134
v 0.307336 0.235665 6.970133
v 0.211697 -0.247039 6.970133
v 0.211675 0.235661 6.970133
v 0.107899 -0.247044 6.970132
v 0.107878 0.235656 6.970132
v -0.000047 -0.247049 6.970131
v -0.000069 0.235651 6.970131
v -0.107993 -0.247054 6.970130
v -0.108015 0.235647 6.970130
v -0.211791 -0.247058 6.970129
v -0.211813 0.235642 6.970129
v -0.307452 -0.247063 6.970129
v -0.307473 0.235638 6.970128
v -0.391299 -0.247066 6.970128
v -0.391321 0.235634 6.970128
v -0.460111 -0.247070 6.970127
v -0.460132 0.235631 6.970127
v -0.511242 -0.247072 6.970127
v -0.511264 0.235628 6.970127
v -0.542729 -0.247073 6.970126
v -0.542751 0.235627 6.970126
v -0.542731 -0.247073 7.454939
v -0.542752 0.235627 7.454939
v -0.511245 -0.247072 7.557661
v -0.511266 0.235628 7.557661
v -0.460114 -0.247070 7.652329
v -0.460135 0.235631 7.652329
v -0.391303 -0.247066 7.735308
v -0.391324 0.235634 7.735308
v -0.307456 -0.247063 7.803407
v -0.307478 0.235638 7.803407
v -0.211796 -0.247058 7.854009
v -0.211818 0.235642 7.854009
v -0.107998 -0.247054 7.885170
v -0.108020 0.235647 7.885170
v 0.549460 -0.247024 6.591928
v 0.549438 0.235676 6.591928
v 0.549431 0.235676 7.386440
v 0.549453 -0.247024 7.386440
v -0.549548 -0.247074 7.386430
v -0.549570 0.235627 7.386430
v -0.549563 0.235626 6.591918
v -0.549541 -0.247074 6.591918
v -0.000025 0.235650 1.825318
v -0.000003 -0.247050 1.825318
v 0.107943 -0.247046 1.825319
v 0.107922 0.235655 1.825319
v 0.211741 -0.247041 1.825320
v 0.211720 0.235659 1.825320
v 0.307402 -0.247037 1.825321
v 0.307380 0.235663 1.825320
v 0.391249 -0.247033 1.825321
v 0.391227 0.235667 1.825321
v 0.460061 -0.247030 1.825322
v 0.460039 0.235670 1.825322
v 0.511193 -0.247028 1.825322
v 0.511171 0.235673 1.825322
v 0.542679 -0.247026 1.825323
v 0.542658 0.235674 1.222522
v 0.542689 -0.247026 0.084533
v 0.542667 0.235674 0.084533
v 0.511203 -0.247028 -0.018189
v 0.511181 0.235672 -0.018189
v 0.460072 -0.247030 -0.112858
v 0.460051 0.235670 -0.112858
v 0.391261 -0.247033 -0.195836
v 0.391240 0.235667 -0.195836
v 0.307415 -0.247037 -0.263935
v 0.307393 0.235663 -0.263935
v 0.211754 -0.247041 -0.314537
v 0.211733 0.235659 -0.314537
v 0.107957 -0.247046 -0.345698
v 0.107935 0.235654 -0.345698
v 0.000011 -0.247051 -0.356221
v -0.000011 0.235650 -0.356221
v -0.107936 -0.247056 -0.345700
v -0.107957 0.235645 -0.345700
v -0.211734 -0.247060 -0.314541
v -0.211755 0.235640 -0.314541
v -0.307395 -0.247064 -0.263940
v -0.307417 0.235636 -0.263940
v -0.391243 -0.247068 -0.195843
v -0.391264 0.235632 -0.195843
v -0.460055 -0.247071 -0.112866
v -0.460077 0.235629 -0.112866
v -0.511188 -0.247074 -0.018198
v -0.511209 0.235627 -0.018198
v -0.542675 -0.247075 0.084524
v -0.542697 0.235625 0.084524
v -0.542685 -0.247075 1.825313
v -0.542707 0.235625 1.825313
v -0.511198 -0.247073 1.825314
v -0.511220 0.235627 1.825313
v -0.460067 -0.247071 1.825314
v -0.460088 0.235629 1.825314
v -0.391255 -0.247068 1.825315
v -0.391277 0.235632 1.825314
v -0.307408 -0.247064 1.825315
v -0.307429 0.235636 1.825315
v -0.211747 -0.247060 1.825316
v -0.211769 0.235640 1.825316
v -0.107949 -0.247055 1.825317
v -0.107971 0.235645 1.825317
v 0.549507 -0.247026 0.153042
v 0.549485 0.235674 0.153042
v 0.549476 0.235675 1.825323
v 0.549497 -0.247026 1.825323
v -0.549503 -0.247075 1.825313
v -0.549525 0.235625 1.825313
v -0.549516 0.235625 0.153032
v -0.549494 -0.247075 0.153032
v -0.584875 -0.469524 1.781352
v -0.584914 -0.469522 6.716543
v -0.584917 0.469465 1.781352
v -0.584956 0.469467 6.716542
v 0.584889 -0.469471 1.781362
v 0.584850 -0.469470 6.716553
v 0.584847 0.469518 1.781362
v 0.584808 0.469519 6.716552
vn 0.0970 -0.0000 0.9953
vn 0.2875 -0.0000 0.9578
vn 0.4676 -0.0000 0.8840
vn 0.6304 -0.0000 0.7762
vn 0.7697 -0.0000 0.6383
vn 0.8799 -0.0000 0.4752
vn 0.9561 -0.0000 0.2931
vn -0.9998 -0.0000 -0.0180
vn -0.0000 -1.0000 -0.0000
vn 0.9862 0.0207 -0.1642
vn -0.0000 0.2440 -0.9698
vn -0.9951 -0.0000 0.0990
vn -0.9561 -0.0000 0.2931
vn -0.8799 -0.0000 0.4752
vn -0.7698 -0.0000 0.6383
vn -0.6304 -0.0000 0.7762
vn -0.4676 -0.0000 0.8839
vn 0.9993 0.0046 -0.0360
vn -0.2875 -0.0000 0.9578
vn -0.0970 -0.0000 0.9953
vn 0.9951 -0.0000 0.0990
vn 1.0000 -0.0000 -0.0000
vn -1.0000 -0.0000 -0.0000
vn -0.0000 1.0000 -0.0000
vn 0.9985 -0.0401 -0.0360
vn -0.0000 -0.9125 -0.4091
vn -0.9985 -0.0402 -0.0360
vn -0.9996 0.0141 0.0226
vn -0.0000 -0.0000 1.0000
vn -0.9951 -0.0000 -0.0990
vn -0.9561 -0.0000 -0.2931
vn -0.8799 -0.0000 -0.4752
vn -0.7697 -0.0000 -0.6383
vn -0.6304 -0.0000 -0.7762
vn -0.4676 -0.0000 -0.8840
vn -0.2875 -0.0000 -0.9578
vn -0.0970 -0.0000 -0.9953
vn 0.0970 -0.0000 -0.9953
vn 0.2875 -0.0000 -0.9578
vn 0.4676 -0.0000 -0.8839
vn 0.6304 -0.0000 -0.7762
vn 0.7698 -0.0000 -0.6383
vn 0.8799 -0.0000 -0.4752
vn 0.9561 -0.0000 -0.2931
vn 0.9951 -0.0000 -0.0990
vn 0.9925 0.0648 0.1037
vn -0.0000 -0.0000 -1.0000
vt 1.000000 0.836848
vt 1.000000 1.000000
vt 0.968750 1.000000
vt 0.968750 0.836848
vt 0.937500 1.000000
vt 0.937500 0.836848
vt 0.906250 1.000000
vt 0.906250 0.836848
vt 0.875000 1.000000
vt 0.875000 0.836848
vt 0.843750 1.000000
vt 0.843750 0.836848
vt 0.812500 1.000000
vt 0.812500 0.836848
vt 0.781250 1.000000
vt 0.781250 0.836848
vt 0.738791 0.836848
vt 0.738791 1.000000
vt 0.718750 1.000000
vt 0.718750 0.836848
vt 0.296822 0.485388
vt 0.250000 0.490000
vt 0.203178 0.485388
vt 0.158156 0.471731
vt 0.116663 0.449553
vt 0.080294 0.419706
vt 0.050447 0.383337
vt 0.028269 0.341844
vt 0.014612 0.296822
vt 0.011654 0.266795
vt 0.011654 0.233205
vt 0.014612 0.203178
vt 0.028269 0.158156
vt 0.050447 0.116663
vt 0.080294 0.080294
vt 0.116663 0.050447
vt 0.158156 0.028269
vt 0.203178 0.014612
vt 0.250000 0.010000
vt 0.296822 0.014612
vt 0.341844 0.028269
vt 0.383337 0.050447
vt 0.419706 0.080294
vt 0.449553 0.116663
vt 0.471731 0.158156
vt 0.485388 0.203178
vt 0.488346 0.233205
vt 0.488346 0.266795
vt 0.485388 0.296822
vt 0.471731 0.341844
vt 0.449553 0.383337
vt 0.419706 0.419706
vt 0.383337 0.449553
vt 0.341844 0.471731
vt 0.687500 1.000000
vt 0.687500 0.836848
vt 0.656250 1.000000
vt 0.656250 0.836848
vt 0.625000 1.000000
vt 0.625000 0.836848
vt 0.593750 1.000000
vt 0.593750 0.836848
vt 0.562500 1.000000
vt 0.562500 0.836848
vt 0.531250 1.000000
vt 0.531250 0.836848
vt 0.500000 1.000000
vt 0.500000 0.836848
vt 0.468750 1.000000
vt 0.468750 0.836848
vt 0.437500 1.000000
vt 0.437500 0.836848
vt 0.406250 1.000000
vt 0.406250 0.836848
vt 0.375000 1.000000
vt 0.375000 0.836848
vt 0.343750 1.000000
vt 0.343750 0.836848
vt 0.312500 1.000000
vt 0.312500 0.836848
vt 0.281250 1.000000
vt 0.281250 0.836848
vt 0.238791 0.836848
vt 0.238791 1.000000
vt 0.218750 1.000000
vt 0.218750 0.836848
vt 0.187500 1.000000
vt 0.187500 0.836848
vt 0.156250 1.000000
vt 0.156250 0.836848
vt 0.125000 1.000000
vt 0.125000 0.836848
vt 0.093750 1.000000
vt 0.093750 0.836848
vt 0.062500 1.000000
vt 0.062500 0.836848
vt 0.261209 1.000000
vt 0.261209 0.836848
vt 0.031250 1.000000
vt 0.031250 0.836848
vt 0.000000 1.000000
vt 0.000000 0.836848
vt 0.761209 1.000000
vt 0.761209 0.836848
vt 0.738791 0.670182
vt 0.738791 0.500000
vt 0.761209 0.500000
vt 0.761209 0.670182
vt 0.238791 0.670182
vt 0.238791 0.500000
vt 0.261209 0.500000
vt 0.261209 0.670182
vt 0.750000 0.490000
vt 0.796822 0.485388
vt 0.841844 0.471731
vt 0.883337 0.449553
vt 0.919706 0.419706
vt 0.949553 0.383337
vt 0.971731 0.341844
vt 0.985388 0.296822
vt 0.988346 0.266795
vt 0.988346 0.233205
vt 0.985388 0.203178
vt 0.971731 0.158156
vt 0.949553 0.116663
vt 0.919706 0.080294
vt 0.883337 0.050447
vt 0.841844 0.028269
vt 0.796822 0.014612
vt 0.750000 0.010000
vt 0.703178 0.014612
vt 0.658156 0.028269
vt 0.616663 0.050447
vt 0.580294 0.080294
vt 0.550447 0.116663
vt 0.528269 0.158156
vt 0.514612 0.203178
vt 0.511654 0.233205
vt 0.511654 0.266795
vt 0.514612 0.296822
vt 0.528269 0.341844
vt 0.550447 0.383337
vt 0.580294 0.419706
vt 0.616663 0.449553
vt 0.658156 0.471731
vt 0.703178 0.485388
vt 0.781250 0.500000
vt 0.781250 0.670182
vt 0.031250 0.500000
vt 0.031250 0.670182
vt 0.000000 0.670182
vt 0.000000 0.500000
vt 0.062500 0.500000
vt 0.062500 0.670182
vt 0.281250 0.500000
vt 0.281250 0.670182
vt 0.093750 0.500000
vt 0.093750 0.670182
vt 0.125000 0.500000
vt 0.125000 0.670182
vt 0.156250 0.500000
vt 0.156250 0.670182
vt 0.187500 0.500000
vt 0.187500 0.670182
vt 0.218750 0.500000
vt 0.218750 0.670182
vt 0.312500 0.500000
vt 0.312500 0.670182
vt 0.343750 0.500000
vt 0.343750 0.670182
vt 0.375000 0.500000
vt 0.375000 0.670182
vt 0.406250 0.500000
vt 0.406250 0.670182
vt 0.437500 0.500000
vt 0.437500 0.670182
vt 0.468750 0.500000
vt 0.468750 0.670182
vt 0.500000 0.500000
vt 0.500000 0.670182
vt 0.531250 0.500000
vt 0.531250 0.670182
vt 0.562500 0.500000
vt 0.562500 0.670182
vt 0.593750 0.500000
vt 0.593750 0.670182
vt 0.625000 0.500000
vt 0.625000 0.670182
vt 0.656250 0.500000
vt 0.656250 0.670182
vt 0.687500 0.500000
vt 0.687500 0.670182
vt 0.718750 0.500000
vt 0.718750 0.670182
vt 0.812500 0.500000
vt 0.812500 0.670182
vt 0.843750 0.500000
vt 0.843750 0.670182
vt 0.875000 0.500000
vt 0.875000 0.670182
vt 0.906250 0.500000
vt 0.906250 0.670182
vt 0.937500 0.500000
vt 0.937500 0.670182
vt 0.968750 0.500000
vt 0.968750 0.670182
vt 1.000000 0.500000
vt 1.000000 0.670182
vt 0.375000 0.000000
vt 0.625000 0.000000
vt 0.625000 0.250000
vt 0.375000 0.250000
vt 0.625000 0.750000
vt 0.375000 0.750000
vt 0.125000 0.750000
vt 0.875000 0.750000
s 0
f 70/1/1 2/2/1 4/3/1 71/4/1
f 71/4/2 4/3/2 6/5/2 73/6/2
f 73/6/3 6/5/3 8/7/3 75/8/3
f 75/8/4 8/7/4 10/9/4 77/10/4
f 77/10/5 10/9/5 12/11/5 79/12/5
f 79/12/6 12/11/6 14/13/6 81/14/6
f 81/14/7 14/13/7 16/15/7 83/16/7
f 129/17/8 63/18/8 18/19/8 85/20/8
f 4/21/9 2/22/9 60/23/9 58/24/9 56/25/9 54/26/9 52/27/9 50/28/9 48/29/9 67/30/9 68/31/9 46/32/9 44/33/9 42/34/9 40/35/9 38/36/9 36/37/9 34/38/9 32/39/9 30/40/9 28/41/9 26/42/9 24/43/9 22/44/9 20/45/9 18/46/9 63/47/9 64/48/9 16/49/9 14/50/9 12/51/9 10/52/9 8/53/9 6/54/9
f 85/20/10 18/19/10 20/55/10 87/56/10
f 87/56/11 20/55/11 22/57/11 89/58/11
f 89/58/11 22/57/11 24/59/11 91/60/11
f 91/60/11 24/59/11 26/61/11 93/62/11
f 93/62/11 26/61/11 28/63/11 95/64/11
f 95/64/11 28/63/11 30/65/11 97/66/11
f 97/66/11 30/65/11 32/67/11 99/68/11
f 99/68/11 32/67/11 34/69/11 101/70/11
f 101/70/11 34/69/11 36/71/11 103/72/11
f 103/72/11 36/71/11 38/73/11 105/74/11
f 105/74/11 38/73/11 40/75/11 107/76/11
f 107/76/11 40/75/11 42/77/11 109/78/11
f 109/78/11 42/77/11 44/79/11 111/80/11
f 111/80/11 44/79/11 46/81/11 113/82/11
f 133/83/12 67/84/12 48/85/12 115/86/12
f 115/86/13 48/85/13 50/87/13 117/88/13
f 117/88/14 50/87/14 52/89/14 119/90/14
f 119/90/15 52/89/15 54/91/15 121/92/15
f 121/92/16 54/91/16 56/93/16 123/94/16
f 123/94/17 56/93/17 58/95/17 125/96/17
f 113/82/18 46/81/18 68/97/18 136/98/18
f 125/96/19 58/95/19 60/99/19 127/100/19
f 127/100/20 60/99/20 2/101/20 70/102/20
f 83/16/21 16/15/21 64/103/21 132/104/21
f 130/105/22 62/106/22 61/107/22 131/108/22
f 134/109/23 66/110/23 65/111/23 135/112/23
f 1/113/24 3/114/24 5/115/24 7/116/24 9/117/24 11/118/24 13/119/24 15/120/24 61/121/24 62/122/24 17/123/24 19/124/24 21/125/24 23/126/24 25/127/24 27/128/24 29/129/24 31/130/24 33/131/24 35/132/24 37/133/24 39/134/24 41/135/24 43/136/24 45/137/24 65/138/24 66/139/24 47/140/24 49/141/24 51/142/24 53/143/24 55/144/24 57/145/24 59/146/24
f 67/84/23 133/83/23 136/98/23 68/97/23
f 63/18/22 129/17/22 132/104/22 64/103/22
f 15/147/21 84/148/21 131/108/21 61/107/21
f 59/149/20 128/150/20 69/151/20 1/152/20
f 57/153/19 126/154/19 128/150/19 59/149/19
f 45/155/25 114/156/25 135/112/25 65/111/25
f 55/157/17 124/158/17 126/154/17 57/153/17
f 53/159/16 122/160/16 124/158/16 55/157/16
f 51/161/15 120/162/15 122/160/15 53/159/15
f 49/163/14 118/164/14 120/162/14 51/161/14
f 47/165/13 116/166/13 118/164/13 49/163/13
f 66/110/12 134/109/12 116/166/12 47/165/12
f 43/167/26 112/168/26 114/156/26 45/155/26
f 41/169/26 110/170/26 112/168/26 43/167/26
f 39/171/26 108/172/26 110/170/26 41/169/26
f 37/173/26 106/174/26 108/172/26 39/171/26
f 35/175/26 104/176/26 106/174/26 37/173/26
f 33/177/26 102/178/26 104/176/26 35/175/26
f 31/179/26 100/180/26 102/178/26 33/177/26
f 29/181/26 98/182/26 100/180/26 31/179/26
f 27/183/26 96/184/26 98/182/26 29/181/26
f 25/185/26 94/186/26 96/184/26 27/183/26
f 23/187/26 92/188/26 94/186/26 25/185/26
f 21/189/26 90/190/26 92/188/26 23/187/26
f 19/191/26 88/192/26 90/190/26 21/189/26
f 17/193/26 86/194/26 88/192/26 19/191/26
f 62/106/27 130/105/27 86/194/27 17/193/27
f 13/195/7 82/196/7 84/148/7 15/147/7
f 11/197/6 80/198/6 82/196/6 13/195/6
f 9/199/5 78/200/5 80/198/5 11/197/5
f 7/201/4 76/202/4 78/200/4 9/199/4
f 5/203/3 74/204/3 76/202/3 7/201/3
f 3/205/2 72/206/2 74/204/2 5/203/2
f 1/207/1 69/208/1 72/206/1 3/205/1
f 133/83/24 115/86/24 117/88/24 119/90/24 121/92/24 123/94/24 125/96/24 127/100/24 70/102/24 71/4/24 73/6/24 75/8/24 77/10/24 79/12/24 81/14/24 83/16/24 132/104/24 129/17/24 85/20/24 87/56/24 89/58/24 91/60/24 93/62/24 95/64/24 97/66/24 99/68/24 101/70/24 103/72/24 105/74/24 107/76/24 109/78/24 111/80/24 113/82/24 136/98/24
f 134/109/9 135/112/9 114/156/9 112/168/9 110/170/9 108/172/9 106/174/9 104/176/9 102/178/9 100/180/9 98/182/9 96/184/9 94/186/9 92/188/9 90/190/9 88/192/9 86/194/9 130/105/9 131/108/9 84/148/9 82/196/9 80/198/9 78/200/9 76/202/9 74/204/9 72/206/9 69/151/9 128/150/9 126/154/9 124/158/9 122/160/9 120/162/9 118/164/9 116/166/9
f 201/83/23 202/109/23 203/112/23 204/98/23
f 197/17/22 198/105/22 199/108/22 200/104/22
f 152/148/28 151/16/28 200/104/28 199/108/28
f 196/150/29 195/100/29 138/102/29 137/151/29
f 194/154/29 193/96/29 195/100/29 196/150/29
f 182/156/30 181/82/30 204/98/30 203/112/30
f 192/158/29 191/94/29 193/96/29 194/154/29
f 190/160/29 189/92/29 191/94/29 192/158/29
f 188/162/29 187/90/29 189/92/29 190/160/29
f 186/164/29 185/88/29 187/90/29 188/162/29
f 184/166/29 183/86/29 185/88/29 186/164/29
f 202/109/29 201/83/29 183/86/29 184/166/29
f 180/168/31 179/80/31 181/82/31 182/156/31
f 178/170/32 177/78/32 179/80/32 180/168/32
f 176/172/33 175/76/33 177/78/33 178/170/33
f 174/174/34 173/74/34 175/76/34 176/172/34
f 172/176/35 171/72/35 173/74/35 174/174/35
f 170/178/36 169/70/36 171/72/36 172/176/36
f 168/180/37 167/68/37 169/70/37 170/178/37
f 166/182/38 165/66/38 167/68/38 168/180/38
f 164/184/39 163/64/39 165/66/39 166/182/39
f 162/186/40 161/62/40 163/64/40 164/184/40
f 160/188/41 159/60/41 161/62/41 162/186/41
f 158/190/42 157/58/42 159/60/42 160/188/42
f 156/192/43 155/56/43 157/58/43 158/190/43
f 154/194/44 153/20/44 155/56/44 156/192/44
f 198/105/45 197/17/45 153/20/45 154/194/45
f 150/196/46 149/14/46 151/16/46 152/148/46
f 148/198/29 147/12/29 149/14/29 150/196/29
f 146/200/29 145/10/29 147/12/29 148/198/29
f 144/202/29 143/8/29 145/10/29 146/200/29
f 142/204/29 141/6/29 143/8/29 144/202/29
f 140/206/29 139/4/29 141/6/29 142/204/29
f 137/208/29 138/1/29 139/4/29 140/206/29
f 201/83/9 204/98/9 181/82/9 179/80/9 177/78/9 175/76/9 173/74/9 171/72/9 169/70/9 167/68/9 165/66/9 163/64/9 161/62/9 159/60/9 157/58/9 155/56/9 153/20/9 197/17/9 200/104/9 151/16/9 149/14/9 147/12/9 145/10/9 143/8/9 141/6/9 139/4/9 138/102/9 195/100/9 193/96/9 191/94/9 189/92/9 187/90/9 185/88/9 183/86/9
f 202/109/24 184/166/24 186/164/24 188/162/24 190/160/24 192/158/24 194/154/24 196/150/24 137/151/24 140/206/24 142/204/24 144/202/24 146/200/24 148/198/24 150/196/24 152/148/24 199/108/24 198/105/24 154/194/24 156/192/24 158/190/24 160/188/24 162/186/24 164/184/24 166/182/24 168/180/24 170/178/24 172/176/24 174/174/24 176/172/24 178/170/24 180/168/24 182/156/24 203/112/24
f 205/209/23 206/210/23 208/211/23 207/212/23
f 207/212/24 208/211/24 212/187/24 211/171/24
f 211/171/22 212/187/22 210/213/22 209/214/22
f 209/214/9 210/213/9 206/59/9 205/75/9
f 207/159/47 211/171/47 209/214/47 205/215/47
f 212/187/29 208/199/29 206/216/29 210/213/29
f 134/109/22 133/83/22 136/98/22 135/112/22
f 130/105/23 129/17/23 132/104/23 131/108/23
f 133/83/45 134/109/45 116/166/45 115/86/45
f 119/90/42 120/162/42 122/160/42 121/92/42
f 116/166/13 115/86/13 117/88/13 118/164/13
f 118/164/14 117/88/14 119/90/14 120/162/14
f 69/151/38 70/102/38 127/100/38 128/150/38
f 121/92/40 122/160/40 124/158/40 126/154/40 128/150/40 127/100/40 125/96/40 123/94/40
f 124/158/17 123/94/17 125/96/17 126/154/17
f 70/102/37 69/151/37 72/206/37 71/4/37
f 74/204/36 73/6/36 71/4/36 72/206/36
f 76/202/35 75/8/35 73/6/35 74/204/35
f 75/8/34 76/202/34 78/200/34 77/10/34
f 80/198/33 79/12/33 77/10/33 78/200/33
f 79/12/32 80/198/32 82/196/32 81/14/32
f 84/148/31 83/16/31 81/14/31 82/196/31
f 131/108/30 132/104/30 83/16/30 84/148/30
