# Blender 4.0.1
# www.blender.org
mtllib r3.mtl
o r3.001
v -0.000250 0.044681 1.079205
v -0.117304 0.033150 1.079204
v -0.229860 -0.000994 1.079203
v -0.333591 -0.056441 1.079203
v -0.424512 -0.131060 1.079202
v -0.499129 -0.221983 1.079202
v -0.554574 -0.325716 1.079201
v -0.588716 -0.438272 1.079201
v -0.600243 -0.555326 1.079201
v -0.588713 -0.672380 1.079201
v -0.554568 -0.784936 1.079201
v -0.499121 -0.888667 1.079201
v -0.424502 -0.979588 1.079202
v -0.333579 -1.054205 1.079203
v -0.229847 -1.109650 1.079203
v -0.117290 -1.143792 1.079204
v -0.000236 -1.155319 1.079205
v 0.116818 -1.143789 1.079206
v 0.229373 -1.109644 1.079207
v 0.333105 -1.054197 1.079207
v 0.424026 -0.979578 1.079208
v 0.498642 -0.888656 1.079208
v 0.554087 -0.784923 1.079209
v 0.588229 -0.672366 1.079209
v 0.599757 -0.555312 1.079209
v 0.588226 -0.438258 1.079209
v 0.554082 -0.325703 1.079209
v 0.498635 -0.221971 1.079209
v 0.424016 -0.131050 1.079208
v 0.333093 -0.056434 1.079207
v 0.229360 -0.000989 1.079207
v 0.116804 0.033153 1.079206
v -0.000283 -0.262860 6.332900
v -0.057339 -0.268480 6.332900
v -0.112202 -0.285123 6.332899
v -0.162764 -0.312150 6.332899
v -0.207082 -0.348521 6.332899
v -0.243453 -0.392840 6.332898
v -0.270479 -0.443403 6.332898
v -0.287121 -0.498267 6.332898
v -0.292739 -0.555323 6.332898
v -0.287119 -0.612379 6.332898
v -0.270476 -0.667242 6.332898
v -0.243449 -0.717804 6.332898
v -0.207077 -0.762122 6.332899
v -0.162759 -0.798493 6.332899
v -0.112196 -0.825518 6.332899
v -0.057332 -0.842160 6.332900
v -0.000276 -0.847779 6.332900
v 0.056780 -0.842159 6.332901
v 0.111643 -0.825516 6.332901
v 0.162205 -0.798489 6.332901
v 0.206523 -0.762117 6.332902
v 0.242894 -0.717798 6.332902
v 0.269919 -0.667236 6.332902
v 0.286561 -0.612372 6.332902
v 0.292180 -0.555316 6.332902
v 0.286560 -0.498260 6.332902
v 0.269917 -0.443397 6.332902
v 0.242890 -0.392834 6.332902
v 0.206518 -0.348517 6.332902
v 0.162199 -0.312146 6.332901
v 0.111637 -0.285120 6.332901
v 0.056773 -0.268478 6.332901
v 0.000122 0.200117 -0.401683
v 0.000136 -0.955319 -0.401683
v -0.078456 0.200116 -0.390636
v -0.078442 -0.955320 -0.390636
v -0.154014 0.200115 -0.357918
v -0.154000 -0.955321 -0.357918
v -0.223649 0.200115 -0.304787
v -0.223635 -0.955322 -0.304787
v -0.284685 0.200114 -0.233284
v -0.284671 -0.955322 -0.233284
v -0.334776 0.200113 -0.146158
v -0.334762 -0.955323 -0.146159
v -0.371997 0.200113 -0.046756
v -0.371983 -0.955324 -0.046756
v -0.394918 0.200112 0.061101
v -0.394904 -0.955324 0.061101
v -0.394927 0.200112 1.363345
v -0.394913 -0.955324 1.363345
v -0.372007 0.200113 1.363346
v -0.371993 -0.955324 1.363346
v -0.334786 0.200113 1.363346
v -0.334773 -0.955323 1.363346
v -0.284696 0.200114 1.363346
v -0.284682 -0.955323 1.363346
v -0.223661 0.200115 1.363347
v -0.223647 -0.955322 1.363347
v -0.154026 0.200115 1.363347
v -0.154012 -0.955321 1.363347
v -0.078468 0.200116 1.363348
v -0.078454 -0.955320 1.363348
v 0.000110 0.200117 1.363348
v 0.000123 -0.955319 1.363348
v 0.078687 0.200118 1.363349
v 0.078701 -0.955318 1.363349
v 0.154245 0.200119 1.363349
v 0.154259 -0.955317 1.363349
v 0.223880 0.200120 1.363350
v 0.223894 -0.955316 1.363350
v 0.284915 0.200121 1.363350
v 0.284929 -0.955316 1.363350
v 0.335006 0.200121 1.363351
v 0.335019 -0.955315 1.363350
v 0.372226 0.200122 1.363351
v 0.372240 -0.955315 1.363351
v 0.395146 0.200122 1.363351
v 0.395160 -0.955314 1.363351
v 0.395156 0.200122 0.061107
v 0.395169 -0.955314 0.061107
v 0.372236 0.200122 -0.046751
v 0.372250 -0.955315 -0.046751
v 0.335016 0.200121 -0.146154
v 0.335030 -0.955315 -0.146154
v 0.284927 0.200121 -0.233280
v 0.284940 -0.955316 -0.233280
v 0.223892 0.200120 -0.304784
v 0.223905 -0.955316 -0.304784
v 0.154257 0.200119 -0.357916
v 0.154271 -0.955317 -0.357916
v 0.078700 0.200118 -0.390635
v 0.078713 -0.955318 -0.390635
v -0.399882 0.200112 0.133034
v -0.399890 0.200112 1.363345
v -0.399877 -0.955324 1.363345
v -0.399868 -0.955324 0.133034
v 0.400110 0.200122 1.363351
v 0.400118 0.200122 0.133040
v 0.400132 -0.955314 0.133040
v 0.400123 -0.955314 1.363351
v 0.000128 -0.322710 -0.401683
v 0.000134 -0.799177 -0.401683
v -0.078444 -0.799178 -0.390636
v -0.078450 -0.322711 -0.390636
v -0.154002 -0.799178 -0.357918
v -0.154008 -0.322712 -0.357918
v -0.223637 -0.799179 -0.304787
v -0.223643 -0.322712 -0.304787
v -0.284673 -0.799180 -0.233284
v -0.284679 -0.322713 -0.233284
v -0.334764 -0.799181 -0.146159
v -0.334770 -0.322714 -0.146159
v -0.371985 -0.799181 -0.046756
v -0.371991 -0.322714 -0.046756
v -0.394906 -0.799181 0.061101
v -0.394912 -0.322714 0.061101
v -0.394915 -0.799181 1.363345
v -0.394921 -0.322714 1.363345
v -0.371995 -0.799181 1.363346
v -0.372001 -0.322714 1.363346
v -0.334774 -0.799181 1.363346
v -0.334780 -0.322714 1.363346
v -0.284684 -0.799180 1.363346
v -0.284690 -0.322713 1.363346
v -0.223649 -0.799179 1.363347
v -0.223654 -0.322712 1.363347
v -0.154014 -0.799178 1.363347
v -0.154020 -0.322711 1.363347
v -0.078456 -0.799177 1.363348
v -0.078462 -0.322710 1.363348
v 0.000122 -0.799176 1.363348
v 0.000116 -0.322710 1.363348
v 0.078699 -0.799176 1.363349
v 0.078694 -0.322709 1.363349
v 0.154257 -0.799175 1.363349
v 0.154252 -0.322708 1.363349
v 0.223892 -0.799174 1.363350
v 0.223886 -0.322707 1.363350
v 0.284927 -0.799173 1.363350
v 0.284922 -0.322706 1.363350
v 0.335018 -0.799173 1.363350
v 0.335012 -0.322706 1.363350
v 0.372238 -0.799172 1.363351
v 0.372232 -0.322705 1.363351
v 0.395158 -0.799172 1.363351
v 0.395153 -0.322705 1.363351
v 0.395167 -0.799172 0.061107
v 0.395162 -0.322705 0.061107
v 0.372248 -0.799172 -0.046751
v 0.372242 -0.322705 -0.046751
v 0.335028 -0.799173 -0.146154
v 0.335022 -0.322706 -0.146154
v 0.284938 -0.799173 -0.233280
v 0.284933 -0.322706 -0.233280
v 0.223904 -0.799174 -0.304784
v 0.223898 -0.322707 -0.304784
v 0.154269 -0.799175 -0.357916
v 0.154264 -0.322708 -0.357916
v 0.078712 -0.799176 -0.390635
v 0.078706 -0.322709 -0.390635
v -0.399878 -0.799181 1.363345
v -0.399884 -0.322714 1.363345
v -0.399876 -0.322714 0.133034
v -0.399870 -0.799181 0.133034
v 0.400130 -0.799172 0.133040
v 0.400125 -0.322705 0.133040
v 0.400116 -0.322705 1.363351
v 0.400122 -0.799172 1.363351
vn -0.0979 0.9935 0.0582
vn -0.2898 0.9553 0.0582
vn -0.4706 0.8804 0.0582
vn -0.6333 0.7717 0.0582
vn -0.7717 0.6333 0.0582
vn -0.8804 0.4706 0.0582
vn -0.9553 0.2898 0.0582
vn -0.9935 0.0978 0.0582
vn -0.9935 -0.0979 0.0582
vn -0.9553 -0.2898 0.0582
vn -0.8804 -0.4706 0.0582
vn -0.7717 -0.6333 0.0582
vn -0.6333 -0.7717 0.0582
vn -0.4706 -0.8804 0.0582
vn -0.2898 -0.9553 0.0582
vn -0.0978 -0.9935 0.0582
vn 0.0979 -0.9935 0.0582
vn 0.2898 -0.9553 0.0582
vn 0.4706 -0.8804 0.0582
vn 0.6333 -0.7717 0.0582
vn 0.7717 -0.6333 0.0582
vn 0.8804 -0.4706 0.0582
vn 0.9553 -0.2898 0.0582
vn 0.9935 -0.0978 0.0582
vn 0.9935 0.0979 0.0582
vn 0.9553 0.2898 0.0582
vn 0.8804 0.4706 0.0582
vn 0.7717 0.6333 0.0582
vn 0.6333 0.7717 0.0582
vn 0.4706 0.8804 0.0582
vn -0.0000 -0.0000 -1.0000
vn 0.2898 0.9553 0.0582
vn 0.0978 0.9935 0.0582
vn -0.0000 -0.0000 1.0000
vn -0.1392 -0.0000 -0.9903
vn -0.3974 -0.0000 -0.9177
vn -0.6066 -0.0000 -0.7950
vn -0.7606 -0.0000 -0.6492
vn -0.8669 -0.0000 -0.4984
vn -0.9365 -0.0000 -0.3507
vn -0.9782 -0.0000 -0.2079
vn -0.0000 -1.0000 -0.0000
vn 0.9976 -0.0000 -0.0688
vn 0.9782 -0.0000 -0.2079
vn 0.9365 -0.0000 -0.3507
vn 0.8669 -0.0000 -0.4984
vn 0.7606 -0.0000 -0.6492
vn 0.6066 -0.0000 -0.7950
vn 0.3974 -0.0000 -0.9177
vn 0.1392 -0.0000 -0.9903
vn -0.9976 -0.0000 -0.0688
vn -1.0000 -0.0000 -0.0000
vn 1.0000 -0.0000 -0.0000
vn -0.0000 1.0000 -0.0000
vn -0.9976 -0.0000 0.0688
vn -0.8669 -0.0000 0.4984
vn -0.1392 -0.0000 0.9903
vn -0.6066 -0.0000 0.7950
vn 0.1392 -0.0000 0.9903
vn 0.3974 -0.0000 0.9177
vn 0.6066 -0.0000 0.7950
vn 0.7606 -0.0000 0.6492
vn 0.8669 -0.0000 0.4984
vn 0.9365 -0.0000 0.3507
vn 0.9782 -0.0000 0.2079
vn 0.9976 -0.0000 0.0688
vt 1.000000 0.877233
vt 1.000000 1.000000
vt 0.968750 1.000000
vt 0.968750 0.877233
vt 0.937500 1.000000
vt 0.937500 0.877233
vt 0.906250 1.000000
vt 0.906250 0.877233
vt 0.875000 1.000000
vt 0.875000 0.877233
vt 0.843750 1.000000
vt 0.843750 0.877233
vt 0.812500 1.000000
vt 0.812500 0.877233
vt 0.781250 1.000000
vt 0.781250 0.877233
vt 0.750000 1.000000
vt 0.750000 0.877233
vt 0.718750 1.000000
vt 0.718750 0.877233
vt 0.687500 1.000000
vt 0.687500 0.877233
vt 0.656250 1.000000
vt 0.656250 0.877233
vt 0.625000 1.000000
vt 0.625000 0.877233
vt 0.593750 1.000000
vt 0.593750 0.877233
vt 0.562500 1.000000
vt 0.562500 0.877233
vt 0.531250 1.000000
vt 0.531250 0.877233
vt 0.500000 1.000000
vt 0.500000 0.877233
vt 0.468750 1.000000
vt 0.468750 0.877233
vt 0.437500 1.000000
vt 0.437500 0.877233
vt 0.406250 1.000000
vt 0.406250 0.877233
vt 0.375000 1.000000
vt 0.375000 0.877233
vt 0.343750 1.000000
vt 0.343750 0.877233
vt 0.312500 1.000000
vt 0.312500 0.877233
vt 0.281250 1.000000
vt 0.281250 0.877233
vt 0.250000 1.000000
vt 0.250000 0.877233
vt 0.218750 1.000000
vt 0.218750 0.877233
vt 0.187500 1.000000
vt 0.187500 0.877233
vt 0.156250 1.000000
vt 0.156250 0.877233
vt 0.125000 1.000000
vt 0.125000 0.877233
vt 0.093750 1.000000
vt 0.093750 0.877233
vt 0.062500 1.000000
vt 0.062500 0.877233
vt 0.296822 0.485388
vt 0.250000 0.490000
vt 0.203178 0.485388
vt 0.158156 0.471731
vt 0.116663 0.449553
vt 0.080294 0.419706
vt 0.050447 0.383337
vt 0.028269 0.341844
vt 0.014612 0.296822
vt 0.010000 0.250000
vt 0.014612 0.203178
vt 0.028269 0.158156
vt 0.050447 0.116663
vt 0.080294 0.080294
vt 0.116663 0.050447
vt 0.158156 0.028269
vt 0.203178 0.014612
vt 0.250000 0.010000
vt 0.296822 0.014612
vt 0.341844 0.028269
vt 0.383337 0.050447
vt 0.419706 0.080294
vt 0.449553 0.116663
vt 0.471731 0.158156
vt 0.485388 0.203178
vt 0.490000 0.250000
vt 0.485388 0.296822
vt 0.471731 0.341844
vt 0.449553 0.383337
vt 0.419706 0.419706
vt 0.383337 0.449553
vt 0.341844 0.471731
vt 0.031250 1.000000
vt 0.031250 0.877233
vt 0.000000 1.000000
vt 0.000000 0.877233
vt 1.000000 0.836848
vt 0.968750 0.836848
vt 0.937500 0.836848
vt 0.906250 0.836848
vt 0.875000 0.836848
vt 0.843750 0.836848
vt 0.812500 0.836848
vt 0.781250 0.836848
vt 0.738791 0.836848
vt 0.738791 1.000000
vt 0.718750 0.836848
vt 0.011654 0.266795
vt 0.011654 0.233205
vt 0.488346 0.233205
vt 0.488346 0.266795
vt 0.687500 0.836848
vt 0.656250 0.836848
vt 0.625000 0.836848
vt 0.593750 0.836848
vt 0.562500 0.836848
vt 0.531250 0.836848
vt 0.500000 0.836848
vt 0.468750 0.836848
vt 0.437500 0.836848
vt 0.406250 0.836848
vt 0.375000 0.836848
vt 0.343750 0.836848
vt 0.312500 0.836848
vt 0.281250 0.836848
vt 0.238791 0.836848
vt 0.238791 1.000000
vt 0.218750 0.836848
vt 0.187500 0.836848
vt 0.156250 0.836848
vt 0.125000 0.836848
vt 0.093750 0.836848
vt 0.062500 0.836848
vt 0.261209 1.000000
vt 0.261209 0.836848
vt 0.031250 0.836848
vt 0.000000 0.836848
vt 0.761209 1.000000
vt 0.761209 0.836848
vt 0.738791 0.670182
vt 0.738791 0.500000
vt 0.761209 0.500000
vt 0.761209 0.670182
vt 0.238791 0.670182
vt 0.238791 0.500000
vt 0.261209 0.500000
vt 0.261209 0.670182
vt 0.750000 0.490000
vt 0.796822 0.485388
vt 0.841844 0.471731
vt 0.883337 0.449553
vt 0.919706 0.419706
vt 0.949553 0.383337
vt 0.971731 0.341844
vt 0.985388 0.296822
vt 0.988346 0.266795
vt 0.988346 0.233205
vt 0.985388 0.203178
vt 0.971731 0.158156
vt 0.949553 0.116663
vt 0.919706 0.080294
vt 0.883337 0.050447
vt 0.841844 0.028269
vt 0.796822 0.014612
vt 0.750000 0.010000
vt 0.703178 0.014612
vt 0.658156 0.028269
vt 0.616663 0.050447
vt 0.580294 0.080294
vt 0.550447 0.116663
vt 0.528269 0.158156
vt 0.514612 0.203178
vt 0.511654 0.233205
vt 0.511654 0.266795
vt 0.514612 0.296822
vt 0.528269 0.341844
vt 0.550447 0.383337
vt 0.580294 0.419706
vt 0.616663 0.449553
vt 0.658156 0.471731
vt 0.703178 0.485388
vt 0.781250 0.500000
vt 0.781250 0.670182
vt 0.031250 0.500000
vt 0.031250 0.670182
vt 0.000000 0.670182
vt 0.000000 0.500000
vt 0.062500 0.500000
vt 0.062500 0.670182
vt 0.281250 0.500000
vt 0.281250 0.670182
vt 0.093750 0.500000
vt 0.093750 0.670182
vt 0.125000 0.500000
vt 0.125000 0.670182
vt 0.156250 0.500000
vt 0.156250 0.670182
vt 0.187500 0.500000
vt 0.187500 0.670182
vt 0.218750 0.500000
vt 0.218750 0.670182
vt 0.312500 0.500000
vt 0.312500 0.670182
vt 0.343750 0.500000
vt 0.343750 0.670182
vt 0.375000 0.500000
vt 0.375000 0.670182
vt 0.406250 0.500000
vt 0.406250 0.670182
vt 0.437500 0.500000
vt 0.437500 0.670182
vt 0.468750 0.500000
vt 0.468750 0.670182
vt 0.500000 0.500000
vt 0.500000 0.670182
vt 0.531250 0.500000
vt 0.531250 0.670182
vt 0.562500 0.500000
vt 0.562500 0.670182
vt 0.593750 0.500000
vt 0.593750 0.670182
vt 0.625000 0.500000
vt 0.625000 0.670182
vt 0.656250 0.500000
vt 0.656250 0.670182
vt 0.687500 0.500000
vt 0.687500 0.670182
vt 0.718750 0.500000
vt 0.718750 0.670182
vt 0.812500 0.500000
vt 0.812500 0.670182
vt 0.843750 0.500000
vt 0.843750 0.670182
vt 0.875000 0.500000
vt 0.875000 0.670182
vt 0.906250 0.500000
vt 0.906250 0.670182
vt 0.937500 0.500000
vt 0.937500 0.670182
vt 0.968750 0.500000
vt 0.968750 0.670182
vt 1.000000 0.500000
vt 1.000000 0.670182
s 0
f 33/1/1 1/2/1 2/3/1 34/4/1
f 34/4/2 2/3/2 3/5/2 35/6/2
f 35/6/3 3/5/3 4/7/3 36/8/3
f 36/8/4 4/7/4 5/9/4 37/10/4
f 37/10/5 5/9/5 6/11/5 38/12/5
f 38/12/6 6/11/6 7/13/6 39/14/6
f 39/14/7 7/13/7 8/15/7 40/16/7
f 40/16/8 8/15/8 9/17/8 41/18/8
f 41/18/9 9/17/9 10/19/9 42/20/9
f 42/20/10 10/19/10 11/21/10 43/22/10
f 43/22/11 11/21/11 12/23/11 44/24/11
f 44/24/12 12/23/12 13/25/12 45/26/12
f 45/26/13 13/25/13 14/27/13 46/28/13
f 46/28/14 14/27/14 15/29/14 47/30/14
f 47/30/15 15/29/15 16/31/15 48/32/15
f 48/32/16 16/31/16 17/33/16 49/34/16
f 49/34/17 17/33/17 18/35/17 50/36/17
f 50/36/18 18/35/18 19/37/18 51/38/18
f 51/38/19 19/37/19 20/39/19 52/40/19
f 52/40/20 20/39/20 21/41/20 53/42/20
f 53/42/21 21/41/21 22/43/21 54/44/21
f 54/44/22 22/43/22 23/45/22 55/46/22
f 55/46/23 23/45/23 24/47/23 56/48/23
f 56/48/24 24/47/24 25/49/24 57/50/24
f 57/50/25 25/49/25 26/51/25 58/52/25
f 58/52/26 26/51/26 27/53/26 59/54/26
f 59/54/27 27/53/27 28/55/27 60/56/27
f 60/56/28 28/55/28 29/57/28 61/58/28
f 61/58/29 29/57/29 30/59/29 62/60/29
f 62/60/30 30/59/30 31/61/30 63/62/30
f 2/63/31 1/64/31 32/65/31 31/66/31 30/67/31 29/68/31 28/69/31 27/70/31 26/71/31 25/72/31 24/73/31 23/74/31 22/75/31 21/76/31 20/77/31 19/78/31 18/79/31 17/80/31 16/81/31 15/82/31 14/83/31 13/84/31 12/85/31 11/86/31 10/87/31 9/88/31 8/89/31 7/90/31 6/91/31 5/92/31 4/93/31 3/94/31
f 63/62/32 31/61/32 32/95/32 64/96/32
f 64/96/33 32/95/33 1/97/33 33/98/33
f 64/96/34 33/1/34 34/4/34 35/6/34 36/8/34 37/10/34 38/12/34 39/14/34 40/16/34 41/18/34 42/20/34 43/22/34 44/24/34 45/26/34 46/28/34 47/30/34 48/32/34 49/34/34 50/36/34 51/38/34 52/40/34 53/42/34 54/44/34 55/46/34 56/48/34 57/50/34 58/52/34 59/54/34 60/56/34 61/58/34 62/60/34 63/62/34
f 134/99/35 66/2/35 68/3/35 135/100/35
f 135/100/36 68/3/36 70/5/36 137/101/36
f 137/101/37 70/5/37 72/7/37 139/102/37
f 139/102/38 72/7/38 74/9/38 141/103/38
f 141/103/39 74/9/39 76/11/39 143/104/39
f 143/104/40 76/11/40 78/13/40 145/105/40
f 145/105/41 78/13/41 80/15/41 147/106/41
f 193/107/34 127/108/34 82/19/34 149/109/34
f 68/63/42 66/64/42 124/65/42 122/66/42 120/67/42 118/68/42 116/69/42 114/70/42 112/71/42 131/110/42 132/111/42 110/73/42 108/74/42 106/75/42 104/76/42 102/77/42 100/78/42 98/79/42 96/80/42 94/81/42 92/82/42 90/83/42 88/84/42 86/85/42 84/86/42 82/87/42 127/112/42 128/113/42 80/89/42 78/90/42 76/91/42 74/92/42 72/93/42 70/94/42
f 149/109/34 82/19/34 84/21/34 151/114/34
f 151/114/34 84/21/34 86/23/34 153/115/34
f 153/115/34 86/23/34 88/25/34 155/116/34
f 155/116/34 88/25/34 90/27/34 157/117/34
f 157/117/34 90/27/34 92/29/34 159/118/34
f 159/118/34 92/29/34 94/31/34 161/119/34
f 161/119/34 94/31/34 96/33/34 163/120/34
f 163/120/34 96/33/34 98/35/34 165/121/34
f 165/121/34 98/35/34 100/37/34 167/122/34
f 167/122/34 100/37/34 102/39/34 169/123/34
f 169/123/34 102/39/34 104/41/34 171/124/34
f 171/124/34 104/41/34 106/43/34 173/125/34
f 173/125/34 106/43/34 108/45/34 175/126/34
f 175/126/34 108/45/34 110/47/34 177/127/34
f 197/128/43 131/129/43 112/51/43 179/130/43
f 179/130/44 112/51/44 114/53/44 181/131/44
f 181/131/45 114/53/45 116/55/45 183/132/45
f 183/132/46 116/55/46 118/57/46 185/133/46
f 185/133/47 118/57/47 120/59/47 187/134/47
f 187/134/48 120/59/48 122/61/48 189/135/48
f 177/127/34 110/47/34 132/136/34 200/137/34
f 189/135/49 122/61/49 124/95/49 191/138/49
f 191/138/50 124/95/50 66/97/50 134/139/50
f 147/106/51 80/15/51 128/140/51 196/141/51
f 194/142/52 126/143/52 125/144/52 195/145/52
f 198/146/53 130/147/53 129/148/53 199/149/53
f 65/150/54 67/151/54 69/152/54 71/153/54 73/154/54 75/155/54 77/156/54 79/157/54 125/158/54 126/159/54 81/160/54 83/161/54 85/162/54 87/163/54 89/164/54 91/165/54 93/166/54 95/167/54 97/168/54 99/169/54 101/170/54 103/171/54 105/172/54 107/173/54 109/174/54 129/175/54 130/176/54 111/177/54 113/178/54 115/179/54 117/180/54 119/181/54 121/182/54 123/183/54
f 131/129/53 197/128/53 200/137/53 132/136/53
f 127/108/52 193/107/52 196/141/52 128/140/52
f 79/184/51 148/185/51 195/145/51 125/144/51
f 123/186/50 192/187/50 133/188/50 65/189/50
f 121/190/49 190/191/49 192/187/49 123/186/49
f 109/192/34 178/193/34 199/149/34 129/148/34
f 119/194/48 188/195/48 190/191/48 121/190/48
f 117/196/47 186/197/47 188/195/47 119/194/47
f 115/198/46 184/199/46 186/197/46 117/196/46
f 113/200/45 182/201/45 184/199/45 115/198/45
f 111/202/44 180/203/44 182/201/44 113/200/44
f 130/147/43 198/146/43 180/203/43 111/202/43
f 107/204/34 176/205/34 178/193/34 109/192/34
f 105/206/34 174/207/34 176/205/34 107/204/34
f 103/208/34 172/209/34 174/207/34 105/206/34
f 101/210/34 170/211/34 172/209/34 103/208/34
f 99/212/34 168/213/34 170/211/34 101/210/34
f 97/214/34 166/215/34 168/213/34 99/212/34
f 95/216/34 164/217/34 166/215/34 97/214/34
f 93/218/34 162/219/34 164/217/34 95/216/34
f 91/220/34 160/221/34 162/219/34 93/218/34
f 89/222/34 158/223/34 160/221/34 91/220/34
f 87/224/34 156/225/34 158/223/34 89/222/34
f 85/226/34 154/227/34 156/225/34 87/224/34
f 83/228/34 152/229/34 154/227/34 85/226/34
f 81/230/34 150/231/34 152/229/34 83/228/34
f 126/143/34 194/142/34 150/231/34 81/230/34
f 77/232/41 146/233/41 148/185/41 79/184/41
f 75/234/40 144/235/40 146/233/40 77/232/40
f 73/236/39 142/237/39 144/235/39 75/234/39
f 71/238/38 140/239/38 142/237/38 73/236/38
f 69/240/37 138/241/37 140/239/37 71/238/37
f 67/242/36 136/243/36 138/241/36 69/240/36
f 65/244/35 133/245/35 136/243/35 67/242/35
f 197/128/54 179/130/54 181/131/54 183/132/54 185/133/54 187/134/54 189/135/54 191/138/54 134/139/54 135/100/54 137/101/54 139/102/54 141/103/54 143/104/54 145/105/54 147/106/54 196/141/54 193/107/54 149/109/54 151/114/54 153/115/54 155/116/54 157/117/54 159/118/54 161/119/54 163/120/54 165/121/54 167/122/54 169/123/54 171/124/54 173/125/54 175/126/54 177/127/54 200/137/54
f 198/146/42 199/149/42 178/193/42 176/205/42 174/207/42 172/209/42 170/211/42 168/213/42 166/215/42 164/217/42 162/219/42 160/221/42 158/223/42 156/225/42 154/227/42 152/229/42 150/231/42 194/142/42 195/145/42 148/185/42 146/233/42 144/235/42 142/237/42 140/239/42 138/241/42 136/243/42 133/188/42 192/187/42 190/191/42 188/195/42 186/197/42 184/199/42 182/201/42 180/203/42
f 198/146/52 197/128/52 200/137/52 199/149/52
f 194/142/53 193/107/53 196/141/53 195/145/53
f 197/128/55 198/146/55 180/203/55 179/130/55
f 183/132/56 184/199/56 186/197/56 185/133/56
f 180/203/44 179/130/44 181/131/44 182/201/44
f 182/201/45 181/131/45 183/132/45 184/199/45
f 133/188/57 134/139/57 191/138/57 192/187/57
f 185/133/58 186/197/58 188/195/58 190/191/58 192/187/58 191/138/58 189/135/58 187/134/58
f 188/195/48 187/134/48 189/135/48 190/191/48
f 134/139/59 133/188/59 136/243/59 135/100/59
f 138/241/60 137/101/60 135/100/60 136/243/60
f 140/239/61 139/102/61 137/101/61 138/241/61
f 139/102/62 140/239/62 142/237/62 141/103/62
f 144/235/63 143/104/63 141/103/63 142/237/63
f 143/104/64 144/235/64 146/233/64 145/105/64
f 148/185/65 147/106/65 145/105/65 146/233/65
f 195/145/66 196/141/66 147/106/66 148/185/66
